<?xml version="1.0" encoding="utf-8"?>
<!-- Generator: Adobe Illustrator 19.0.0, SVG Export Plug-In . SVG Version: 6.00 Build 0)  -->
<svg version="1.1"
	 id="Layer_1" xmlns:dc="http://purl.org/dc/elements/1.1/" xmlns:rdf="http://www.w3.org/1999/02/22-rdf-syntax-ns#" xmlns:inkscape="http://www.inkscape.org/namespaces/inkscape" xmlns:sodipodi="http://sodipodi.sourceforge.net/DTD/sodipodi-0.dtd" xmlns:svg="http://www.w3.org/2000/svg" xmlns:cc="http://creativecommons.org/ns#" sodipodi:docname="drop.svg" inkscape:version="0.91 r13725"
	 xmlns="http://www.w3.org/2000/svg" xmlns:xlink="http://www.w3.org/1999/xlink" x="0px" y="0px" viewBox="-191 230.8 227.8 333.2"
	 style="enable-background:new -191 230.8 227.8 333.2;" xml:space="preserve">
<style type="text/css">
	.st0{fill:#FFFFFF;}
	.st1{fill:#9E0000;}
	.st2{fill:none;}
	.st3{font-family:'JuliusSansOne-Regular';}
	.st4{font-size:18px;}
	.st5{font-family:'Roboto-Light';}
	.st6{font-size:16px;}
</style>
<sodipodi:namedview  bordercolor="#666666" id="namedview3422" showgrid="false" fit-margin-left="0" fit-margin-top="0" inkscape:cx="114.5" inkscape:zoom="1.0816667" inkscape:cy="166.177" gridtolerance="10" pagecolor="#ffffff" guidetolerance="10" objecttolerance="10" borderopacity="1" inkscape:current-layer="Layer_1" inkscape:window-maximized="0" inkscape:window-y="0" inkscape:window-x="0" fit-margin-bottom="0" fit-margin-right="0" inkscape:window-height="715" inkscape:window-width="1154" inkscape:pageopacity="0" inkscape:pageshadow="2">
	</sodipodi:namedview>
<g id="g3410" transform="translate(-285.5,-132.966)">
	<path id="path3412" inkscape:connector-curvature="0" class="st0" d="M199.4,692c-55.1,0-99.9-44.8-99.9-99.9
		c0-37.6,23.2-68,47.8-100.1c21-27.5,42.6-55.7,52.1-90.7c9.5,35,31.1,63.2,52.1,90.7c24.6,32.1,47.8,62.4,47.8,100.1
		C299.3,647.2,254.5,692,199.4,692L199.4,692L199.4,692z"/>
	<path id="path3414" inkscape:connector-curvature="0" class="st0" d="M199.4,363.8c0,99.2,104.9,145.9,104.9,228.3
		c0,57.9-47,104.9-104.9,104.9S94.5,650,94.5,592.1C94.5,509.6,199.4,463,199.4,363.8 M199.4,417.1c-11.3,29.8-30.5,54.9-48.1,77.9
		c-24,31.4-46.7,61.1-46.7,97c0,52.3,42.6,94.9,94.9,94.9s94.9-42.6,94.9-94.9c0-35.9-22.7-65.6-46.7-97
		C229.9,472,210.7,446.9,199.4,417.1L199.4,417.1z"/>
</g>
<g id="g3416" transform="translate(-285.5,-132.966)">
	<path id="path3418" inkscape:connector-curvature="0" class="st0" d="M217.4,692c-55.1,0-99.9-44.8-99.9-99.9
		c0-37.6,23.2-68,47.8-100.1c21-27.5,42.6-55.7,52.1-90.7c9.5,35,31.1,63.2,52.1,90.7c24.6,32.1,47.8,62.4,47.8,100.1
		C317.3,647.2,272.5,692,217.4,692L217.4,692z"/>
	<path id="path3420" inkscape:connector-curvature="0" class="st1" d="M217.4,363.8c0,99.2,104.9,145.9,104.9,228.3
		c0,57.9-47,104.9-104.9,104.9c-57.9,0-104.9-47-104.9-104.9C112.5,509.6,217.4,463,217.4,363.8 M217.4,417.1
		c-11.3,29.8-30.5,54.9-48.1,77.9c-24,31.4-46.7,61.1-46.7,97c0,52.3,42.6,94.9,94.9,94.9s94.9-42.6,94.9-94.9
		c0-35.9-22.7-65.6-46.7-97C247.9,472,228.7,446.9,217.4,417.1L217.4,417.1L217.4,417.1z"/>
</g>
<rect x="-151" y="399.8" class="st2" width="165.8" height="67"/>
<text transform="matrix(1 0 0 1 -130.9043 411.579)"><tspan x="0" y="0" class="st1 st3 st4">Offrez votre </tspan><tspan x="-17.6" y="21.6" class="st1 st3 st4">œuvre pour une </tspan><tspan x="-4.6" y="43.2" class="st1 st3 st4">bonne cause !</tspan></text>
<rect x="-151" y="470.8" class="st2" width="165.8" height="73"/>
<text transform="matrix(1 0 0 1 -137.335 482.789)"><tspan x="0" y="0" class="st1 st5 st6">Elle sera exposée et </tspan><tspan x="-5.9" y="19.2" class="st1 st5 st6">vendue au profit de la </tspan><tspan x="32.5" y="38.4" class="st1 st5 st6">recherche.</tspan></text>
</svg>
